<svg xmlns="http://www.w3.org/2000/svg" viewBox="0 0 90 90">
  <path d="M2 2C1.45 1.99 0.99023438 2.4302344 0.99023438 2.9902344C0.98023437 3.5402344 1.4207031 3.99 1.9707031 4L3.8808594 4C4.1008594 4 4.289375 4.139375 4.359375 4.359375L6.0195312 10L11 10C12.65 10 14 11.35 14 13C14 14.38 13.059297 15.550625 11.779297 15.890625C11.919297 16.230625 12 16.61 12 17C12 18.56 10.79 19.860469 9.25 19.980469C9.8 20.610469 10.62 21 11.5 21L22.470703 21C23.820703 21 25.009141 20.089063 25.369141 18.789062L27.960938 9.2597656C28.110937 8.7297656 27.799766 8.1790625 27.259766 8.0390625C27.179766 8.0090625 27.09 8 27 8L7.5097656 8L6.2792969 3.7890625C5.9592969 2.7290625 4.9808594 2 3.8808594 2L2 2 z M 9.25 19.980469C9.25 19.980469 9.2402344 19.980703 9.2402344 19.970703C9.2302344 19.970703 9.2307031 19.970469 9.2207031 19.980469L9.25 19.980469 z M 3 12C2.45 12 2 12.45 2 13C2 13.55 2.45 14 3 14L11 14C11.55 14 12 13.55 12 13C12 12.45 11.55 12 11 12L3 12 z M 1 16C0.45 16 0 16.45 0 17C0 17.55 0.45 18 1 18L9 18C9.55 18 10 17.55 10 17C10 16.45 9.55 16 9 16L1 16 z M 12 23 A 2 2 0 0 0 12 27 A 2 2 0 0 0 12 23 z M 22 23 A 2 2 0 0 0 22 27 A 2 2 0 0 0 22 23 z" fill="#5B5B5B" />
</svg>